<?xml version="1.0" encoding="UTF-8" standalone="no"?>
<svg
   xmlns:dc="http://purl.org/dc/elements/1.1/"
   xmlns:cc="http://creativecommons.org/ns#"
   xmlns:rdf="http://www.w3.org/1999/02/22-rdf-syntax-ns#"
   xmlns:svg="http://www.w3.org/2000/svg"
   xmlns="http://www.w3.org/2000/svg"
   xmlns:sodipodi="http://sodipodi.sourceforge.net/DTD/sodipodi-0.dtd"
   xmlns:inkscape="http://www.inkscape.org/namespaces/inkscape"
   width="24"
   height="20"
   viewBox="0 0 24 20"
   version="1.1"
   id="svg6"
   sodipodi:docname="logo_sem_texto.svg"
   style="fill:none"
   inkscape:version="0.92.5 (2060ec1f9f, 2020-04-08)">
  <metadata
     id="metadata12">
    <rdf:RDF>
      <cc:Work
         rdf:about="">
        <dc:format>image/svg+xml</dc:format>
        <dc:type
           rdf:resource="http://purl.org/dc/dcmitype/StillImage" />
        <dc:title></dc:title>
      </cc:Work>
    </rdf:RDF>
  </metadata>
  <defs
     id="defs10" />
  <sodipodi:namedview
     pagecolor="#ffffff"
     bordercolor="#666666"
     borderopacity="1"
     objecttolerance="10"
     gridtolerance="10"
     guidetolerance="10"
     inkscape:pageopacity="0"
     inkscape:pageshadow="2"
     inkscape:window-width="1036"
     inkscape:window-height="582"
     id="namedview8"
     showgrid="false"
     inkscape:zoom="3.8421053"
     inkscape:cx="38"
     inkscape:cy="10"
     inkscape:window-x="531"
     inkscape:window-y="238"
     inkscape:window-maximized="0"
     inkscape:current-layer="svg6" />
  <path
     d="m 43.3669,0 c 0.4029,0 0.4835,0.0483456 0.4835,1.46648 v 1.30533 c 0,1.35368 -0.1129,1.51483 -0.4835,1.51483 H 38.8385 V 19.5477 c 0,0.3384 -0.4351,0.419 -1.9499,0.419 h -0.8058 c -1.547,0 -1.8049,-0.0806 -1.8049,-0.419 V 4.28664 h -4.5283 c -0.3707,0 -0.4835,-0.11281 -0.4835,-1.51483 V 1.46648 C 29.2661,0 29.3467,0 29.7496,0 Z M 51.489,0.43511 C 51.489,0.145037 51.07,0 49.6035,0 H 48.7494 C 47.2023,0 46.9445,0.128922 46.9445,0.43511 V 19.5638 c 0,0.3385 0.2578,0.419 1.8049,0.419 h 0.8541 c 1.4665,0 1.8855,-0.0805 1.8855,-0.419 z M 73.599,0 H 72.2614 C 70.5532,0 70.4565,0.193382 70.3115,0.483456 L 67.6686,6.81673 C 66.7823,8.92782 65.8798,11.1839 65.5414,12.3604 65.2191,11.1839 64.6389,9.62077 63.4142,6.70392 L 60.7874,0.483456 C 60.6263,0.112806 59.9655,0 58.5152,0 H 57.0326 C 55.5661,0 55.276,0.128922 55.276,0.43511 V 19.5638 c 0,0.3385 0.2901,0.419 1.8049,0.419 h 0.8219 c 1.4987,0 1.9177,-0.0805 1.9177,-0.419 V 8.20263 h 0.1128 c 0,0 0.1289,0.5318 0.3545,1.01526 l 3.0297,7.10681 c 0.1289,0.3223 0.2901,0.4512 1.7082,0.4512 h 0.9025 c 1.4342,0 1.547,-0.1128 1.6759,-0.4512 L 70.376,9.47573 c 0.2578,-0.64461 0.4512,-1.2731 0.4512,-1.2731 H 70.94 V 19.5477 c 0,0.3384 0.2901,0.419 1.8693,0.419 h 0.8058 c 1.4665,0 1.8855,-0.0806 1.8855,-0.419 V 0.43511 C 75.5006,0.128922 75.0655,0 73.599,0 Z"
     id="path2"
     inkscape:connector-curvature="0"
     style="fill:#ffffff" />
  <path
     d="M 22.7708,4.28664 H 1.16029 C 0.83799,4.28664 0.547917,4.15772 0.338419,3.94822 0.128922,3.73872 0,3.44865 0,3.14246 V 1.16029 C 0,0.83799 0.128922,0.564032 0.338419,0.354534 0.564032,0.128922 0.83799,0 1.16029,0 H 22.7708 c 0.3223,0 0.6124,0.128922 0.8219,0.338419 0.2095,0.209497 0.3384,0.483456 0.3384,0.805761 v 1.96605 c 0,0.32231 -0.1289,0.59626 -0.3384,0.80576 -0.2095,0.22561 -0.4996,0.37065 -0.8219,0.37065 z M 9.57243,7.8481 H 1.16029 c -0.3223,0 -0.612373,0.12892 -0.805756,0.33842 C 0.145037,8.39601 0.0161152,8.68609 0.0161152,8.99228 v 1.96602 c 0,0.3223 0.1289218,0.6124 0.3384188,0.8058 0.209498,0.2095 0.499572,0.3384 0.821876,0.3384 H 9.58854 V 7.8481 Z M 23.5927,8.20263 C 23.3832,7.99313 23.0931,7.86421 22.7708,7.86421 h -8.4122 v 4.27049 h 8.4122 c 0.3223,0 0.6124,-0.1289 0.8219,-0.3384 0.2095,-0.2095 0.3384,-0.4996 0.3384,-0.8057 V 9.00839 c 0,-0.3223 -0.1289,-0.61238 -0.3384,-0.80576 z m 0,7.84807 c -0.2095,-0.2095 -0.4996,-0.3384 -0.8219,-0.3384 h -8.4122 v 4.2705 h 8.4122 c 0.3223,0 0.6124,-0.1289 0.8219,-0.3384 0.2095,-0.2095 0.3384,-0.4996 0.3384,-0.8057 v -1.9661 c 0,-0.3223 -0.1289,-0.6124 -0.3384,-0.8219 z M 9.57243,15.7123 H 1.16029 c -0.3223,0 -0.612373,0.1289 -0.805756,0.3384 -0.209497,0.2095 -0.3384188,0.4996 -0.3384188,0.8058 v 1.966 c 0,0.3223 0.1289218,0.6124 0.3384188,0.8058 0.209498,0.2095 0.499572,0.3384 0.821876,0.3384 h 8.41213 v -4.2544 z"
     id="path4"
     inkscape:connector-curvature="0"
     style="fill:#eb0028" />
</svg>
